<svg width="380" height="432" viewBox="0 0 380 432" fill="none" xmlns="http://www.w3.org/2000/svg">
<g clip-path="url(#clip0_4_115)">
<mask id="mask0_4_115" style="mask-type:luminance" maskUnits="userSpaceOnUse" x="0" y="0" width="380" height="432">
<path d="M380 0H0V432H380V0Z" fill="white"/>
</mask>
<g mask="url(#mask0_4_115)">
<g opacity="0.5">
<path d="M263.01 51.6042C274.347 60.0432 284.26 70.3822 292.212 82.2C307.98 105.657 315.401 134.085 313.114 162.257C313.055 162.996 312.405 163.54 311.666 163.482C310.927 163.423 310.371 162.775 310.429 162.036C312.666 134.473 305.405 106.656 289.979 83.6996C274.554 60.7559 251.539 43.5241 225.177 35.1866C198.815 26.8491 170.074 27.7125 144.254 37.6211C118.434 47.5297 96.4997 66.1179 82.4823 89.9509C82.1082 90.5886 81.2808 90.7995 80.6431 90.4254C80.0126 90.0567 79.7891 89.2311 80.1686 88.5862C94.487 64.2288 116.913 45.2355 143.291 35.1169C169.675 24.9911 199.04 24.1003 225.979 32.6221C239.338 36.8449 251.859 43.3042 263.01 51.6042ZM305.886 192.339C306.346 192.682 306.545 193.299 306.346 193.867C305.711 195.651 305.021 197.449 304.346 199.182C298.022 214.809 288.795 228.767 276.909 240.701C276.391 241.231 275.539 241.234 275.014 240.709C274.489 240.184 274.486 239.333 275.011 238.807C286.64 227.129 295.667 213.47 301.844 198.191C302.504 196.492 303.191 194.714 303.807 192.971C304.057 192.274 304.823 191.906 305.525 192.149C305.654 192.2 305.778 192.259 305.886 192.339ZM263.046 250.515C263.154 250.595 263.244 250.685 263.323 250.788C263.77 251.389 263.644 252.234 263.048 252.673C243.258 267.405 219.774 275.902 195.149 277.27C170.516 278.633 146.234 272.77 124.944 260.32C103.641 247.872 86.6262 229.587 75.7274 207.453C64.8358 185.325 60.7303 160.683 63.849 136.213C63.9467 135.481 64.6188 134.953 65.3504 135.051C66.0947 135.147 66.6098 135.821 66.5193 136.558C63.4578 160.501 67.4789 184.611 78.1411 206.267C88.8033 227.923 105.46 245.818 126.294 257.996C147.142 270.184 170.893 275.919 194.992 274.583C219.097 273.253 242.075 264.927 261.445 250.519C261.93 250.154 262.586 250.173 263.046 250.515Z" fill="#A6EFF4"/>
</g>
<path d="M185.823 375.849C222.897 375.849 252.952 372.411 252.952 368.171C252.952 363.93 222.897 360.494 185.823 360.494C148.748 360.494 118.693 363.93 118.693 368.171C118.693 372.411 148.748 375.849 185.823 375.849Z" fill="#E7E8EB"/>
<path d="M225.268 274.516C223.464 271.396 221.802 268.119 220.328 264.776L220.093 264.241H157.42L157.172 264.733C154.657 269.718 152.36 274.924 150.345 280.205L150.34 280.216C146.045 291.975 150.966 305.69 155.831 311.672L155.937 311.802C160.269 317.131 166.131 324.342 180.202 324.342C180.853 324.342 181.523 324.326 182.21 324.295C186.689 324.087 190.814 324.026 194.803 323.968C209.548 323.751 220.203 323.594 225.817 315.857C232.377 306.816 233.963 288.874 225.268 274.516Z" fill="#242C42"/>
<path d="M196.612 281.583H183.027V288.581H196.612V281.583Z" fill="white"/>
<path d="M196.612 289.477H183.027C182.533 289.477 182.131 289.076 182.131 288.58V281.584C182.131 281.089 182.533 280.688 183.027 280.688H196.612C197.108 280.688 197.509 281.089 197.509 281.584V288.58C197.509 289.076 197.108 289.477 196.612 289.477ZM183.924 287.684H195.716V282.48H183.924V287.684Z" fill="#242C42"/>
<path d="M183.626 323.84V305.575C183.85 305.575 184.075 305.495 184.249 305.326C184.605 304.982 184.615 304.415 184.271 304.059C171.419 290.74 147.91 283.832 136.046 281.85C124.869 279.983 104.087 268.607 103.879 268.492L103.692 268.389L103.477 268.382C103.264 268.373 98.1646 268.249 94.525 272.002C91.9188 274.691 90.7635 278.628 91.0924 283.704C91.9707 297.269 119.864 312.123 136.529 320.997C138.642 322.121 140.546 323.136 142.147 324.017C148.468 327.581 155.641 329.603 162.892 329.867C163.439 329.887 163.983 329.896 164.53 329.896C171.238 329.896 177.94 328.402 184.009 325.542C184.457 325.331 184.649 324.797 184.437 324.349C184.285 324.025 183.961 323.841 183.626 323.84Z" fill="#242C42"/>
<path d="M280.826 273.9C276.255 269.653 268.886 270.622 268.573 270.664L268.41 270.686L268.266 270.765C268.089 270.861 250.451 280.461 239.268 282.328C227.405 284.31 203.898 291.218 191.045 304.538C190.702 304.894 190.712 305.462 191.067 305.806C191.241 305.973 191.466 306.054 191.69 306.054V324.364C191.354 324.364 191.031 324.549 190.879 324.873C190.669 325.32 190.86 325.855 191.308 326.065C197.376 328.922 204.073 330.415 210.779 330.415C211.327 330.415 211.876 330.404 212.424 330.384C219.674 330.121 226.847 328.1 233.161 324.545C234.792 323.645 236.728 322.613 238.876 321.469C255.509 312.604 283.346 297.768 284.224 284.227C284.514 279.738 283.371 276.264 280.826 273.9Z" fill="#242C42"/>
<path d="M247.268 323.759L247.157 323.663C244.763 321.917 242.457 322.272 240.225 322.614C239.335 322.751 238.416 322.893 237.502 322.893C234.22 322.893 221.434 321.662 216.092 321.134C212.693 320.791 207.268 320.679 200.41 320.814L199.447 320.833L199.535 321.792C199.852 325.25 199.149 328.695 197.5 331.751L196.863 332.929L199.353 333.188C202.763 333.525 205.518 333.767 207.789 333.969C212.117 334.353 214.729 334.584 216.7 334.998C218.823 335.446 221.049 336.429 223.405 337.472C226.925 339.028 230.556 340.636 234.295 340.636C234.49 340.636 234.685 340.631 234.88 340.622C241.243 340.329 245.215 338.616 247.383 335.234C249.507 331.921 250.377 326.916 247.268 323.759Z" fill="#242C42"/>
<path d="M201.32 321.599L201.245 320.785H199.877C198.324 320.453 176.629 315.679 158.718 304.74C151.447 300.3 143.855 294.55 136.512 288.99C124.628 279.992 113.402 271.49 103.811 268.469C98.3976 265.336 92.5076 265.332 87.6339 268.465C82.4385 271.803 79.4872 277.944 80.1128 284.111C81.2985 295.788 90.6425 301.787 107.472 308.771C123.176 315.286 153.678 326.088 170.106 329.424C178.561 331.095 189.564 332.235 198.205 333.041L198.796 333.095L199.077 332.573C200.894 329.203 201.67 325.409 201.32 321.599Z" fill="#242C42"/>
<path d="M282.579 271.982C277.607 268.721 271.676 268.568 266.288 271.548C255.845 274.969 244.822 283.397 233.152 292.318C226.014 297.775 218.634 303.417 211.378 307.833C193.453 318.742 171.762 323.558 170.201 323.895H168.85L168.775 324.708C168.42 328.516 169.191 332.311 171.003 335.682L171.284 336.205L171.876 336.149C181.119 335.278 191.689 334.156 199.993 332.441C216.624 329.052 247.194 318.106 262.619 311.776C279.459 304.865 288.806 298.899 289.981 287.189C290.574 281.288 287.668 275.319 282.579 271.982Z" fill="#242C42"/>
<path d="M169.666 324.821C169.666 324.821 147.838 325.673 140.911 325.195C133.984 324.717 128.732 321.368 126.832 323.042C124.932 324.717 127.311 327.333 127.311 327.333C127.311 327.333 126.593 331.384 128.508 333.537C130.422 335.691 132.996 337.589 141.15 339.981C149.304 342.373 157.608 338.994 162.096 337.799L171.747 335.257C171.747 335.257 169.532 331.833 169.666 324.821Z" fill="white"/>
<path d="M172.501 334.774C172.481 334.741 170.436 331.44 170.563 324.839L170.581 323.888L169.631 323.926C169.414 323.934 147.773 324.772 140.973 324.3C137.933 324.091 135.164 323.293 132.94 322.652C129.869 321.768 127.648 321.126 126.24 322.37C124.029 324.319 125.2 328.931 125.394 329.628C125.467 329.998 125.936 331.994 127.839 334.132C130.029 336.597 132.867 338.484 140.897 340.841C143.031 341.466 145.168 341.714 147.243 341.714C152.138 341.714 156.693 340.341 160.044 339.33C160.884 339.077 161.649 338.845 162.324 338.665L173.158 335.808L172.501 334.774Z" fill="#242C42"/>
<path d="M178.283 321.585C177.932 321.585 177.6 321.378 177.455 321.035C177.265 320.578 177.48 320.054 177.936 319.863C178.405 319.666 225.009 300.079 243.906 288.612C244.331 288.355 244.881 288.489 245.137 288.913C245.394 289.336 245.26 289.887 244.836 290.143C225.825 301.68 179.098 321.318 178.629 321.515C178.516 321.564 178.398 321.585 178.283 321.585Z" fill="white"/>
<path d="M190.239 319.572C190.165 319.572 190.089 319.563 190.013 319.544C168.148 313.874 130.318 287.909 128.718 286.807C128.31 286.526 128.208 285.968 128.488 285.56C128.77 285.153 129.327 285.051 129.735 285.331C130.125 285.599 168.906 312.219 190.463 317.809C190.943 317.934 191.231 318.422 191.107 318.901C191.002 319.304 190.638 319.572 190.239 319.572Z" fill="white"/>
<path d="M168.481 178.691C168.481 178.691 152.323 179.266 146.533 182.371C140.743 185.476 139.306 204.425 139.306 204.425L121.433 240.931C121.433 240.931 75.8665 207.87 71.9929 204.582C68.1193 201.293 67.0908 198.762 63.1743 196.175C59.2578 193.589 57.8507 193.577 52.8399 193.482C47.8291 193.387 47.0968 194.09 47.4292 195.517C47.7615 196.944 49.5492 197.352 50.9704 197.379C52.5388 197.533 54.0943 197.803 55.6235 198.184L41.1849 203.637C37.5826 204.99 38.4091 199.278 35.1931 199.217C31.9771 199.156 32.1648 207.399 37.4603 211.433C42.7558 215.466 46.3811 214.458 50.6514 214.18C54.9217 213.902 65.016 212.673 65.016 212.673C65.016 212.673 92.1082 237.518 101.961 246.647C111.814 255.776 125.249 264.614 130.327 261.138C135.407 257.66 154.995 222.966 154.995 222.966L167.768 191.014C167.768 191.014 171.291 184.322 168.481 178.691Z" fill="white"/>
<path d="M168.481 178.691C168.481 178.691 152.323 179.266 146.533 182.371C140.743 185.476 139.306 204.425 139.306 204.425L121.433 240.931C121.433 240.931 75.8665 207.87 71.9929 204.582C68.1193 201.293 67.0908 198.762 63.1743 196.175C59.2578 193.589 57.8507 193.577 52.8399 193.482C47.8291 193.387 47.0968 194.09 47.4292 195.517C47.7615 196.944 49.5492 197.352 50.9704 197.379C52.5388 197.533 54.0943 197.803 55.6235 198.184L41.1849 203.637C37.5826 204.99 38.4091 199.278 35.1931 199.217C31.9771 199.156 32.1648 207.399 37.4603 211.433C42.7558 215.466 46.3811 214.458 50.6514 214.18C54.9217 213.902 65.016 212.673 65.016 212.673C65.016 212.673 92.1082 237.518 101.961 246.647C111.814 255.776 125.249 264.614 130.327 261.138C135.407 257.66 154.995 222.966 154.995 222.966L167.768 191.014C167.768 191.014 171.291 184.322 168.481 178.691Z" fill="#E5E5E5"/>
<path d="M127.296 262.806C119.992 262.667 108.108 253.564 101.352 247.304C92.1752 238.801 67.7271 216.376 64.7139 213.612C62.7733 213.845 54.4657 214.83 50.7097 215.073C50.155 215.11 49.6118 215.159 49.0739 215.207C45.4949 215.527 41.7936 215.859 36.9179 212.146C32.5493 208.817 31.5502 203.228 32.5097 200.472C32.9941 199.081 33.978 198.297 35.2101 198.32C37.2415 198.359 38.0862 200.043 38.7029 201.273C39.5026 202.868 39.7984 203.199 40.8701 202.798L52.3734 198.454C51.8773 198.38 51.3792 198.32 50.8826 198.271C50.879 198.271 50.8755 198.271 50.8719 198.271C48.5206 198.226 46.923 197.295 46.5567 195.72C46.4871 195.42 46.2749 194.51 46.8844 193.758C47.6316 192.834 49.2511 192.516 52.8578 192.585L52.9483 192.587C57.8668 192.681 59.5586 192.712 63.6681 195.427C65.9857 196.958 67.3356 198.471 68.7646 200.072C69.8354 201.273 70.943 202.514 72.5733 203.898C76.0834 206.878 114.792 235.001 121.097 239.579L138.445 204.143C138.76 202.388 141.86 185.914 147.763 182.748C153.635 179.6 167.775 177.873 168.374 177.801L169 177.726L169.282 178.29C172.174 184.082 168.923 190.727 168.584 191.387L155.775 223.406C154.971 224.831 136.025 258.322 130.833 261.877C129.854 262.548 128.655 262.83 127.296 262.806ZM65.317 211.733L65.6219 212.013C65.8933 212.261 92.8286 236.963 102.57 245.99C112.518 255.206 125.449 263.388 129.82 260.397C133.839 257.646 148.74 232.217 154.184 222.577L166.975 190.597C167.006 190.536 170.012 184.689 167.94 179.664C165.076 180.044 153.5 181.706 148.61 184.329C144.175 186.707 141.027 199.752 140.188 204.578L140.11 204.818L121.77 242.282L120.907 241.656C119.046 240.305 75.2685 208.537 71.4134 205.265C69.6888 203.801 68.5389 202.512 67.4269 201.266C66.0191 199.687 64.8034 198.325 62.6805 196.922C59.0048 194.494 57.8163 194.489 52.9142 194.379L52.8237 194.377C49.1481 194.307 48.4197 194.709 48.2775 194.885C48.2563 194.912 48.237 195.033 48.3025 195.314C48.4947 196.141 49.8153 196.461 50.9874 196.483C52.6632 196.646 54.2733 196.924 55.8417 197.315L58.6252 198.008L41.5015 204.475C38.812 205.486 37.7816 203.434 37.101 202.076C36.4955 200.87 36.0784 200.13 35.1761 200.112C34.7513 200.104 34.4235 200.424 34.2016 201.061C33.4251 203.293 34.4957 208.047 38.0036 210.72C42.3262 214.012 45.3782 213.739 48.9133 213.422C49.4655 213.373 50.0231 213.323 50.5931 213.285C54.7897 213.013 64.8067 211.796 64.9073 211.784L65.317 211.733Z" fill="#242C42"/>
<path d="M38.4778 212.245C38.4778 212.245 31.6146 206.461 35.4742 201.002C36.4277 199.645 38.4528 201.761 38.9795 205.555C39.5063 209.348 41.3629 210.849 42.33 211.136" fill="white"/>
<path d="M38.4778 212.245C38.4778 212.245 31.6146 206.461 35.4742 201.002C36.4277 199.645 38.4528 201.761 38.9795 205.555C39.5063 209.348 41.3629 210.849 42.33 211.136" fill="#242C42"/>
<path d="M38.4607 213.141C38.2627 213.137 38.0641 213.068 37.9009 212.93C35.3088 210.747 31.3132 205.335 34.7426 200.485C35.1885 199.849 35.8858 199.572 36.5987 199.745C38.1094 200.11 39.4535 202.449 39.8674 205.432C40.3468 208.887 41.9911 210.101 42.5847 210.277C43.0598 210.418 43.33 210.917 43.1893 211.391C43.0485 211.865 42.5494 212.136 42.0752 211.996C40.5804 211.552 38.6412 209.63 38.0924 205.678C37.7076 202.906 36.5476 201.538 36.1721 201.486C32.8711 206.237 38.8032 211.345 39.0573 211.56C39.4349 211.879 39.4815 212.446 39.1624 212.823C38.9817 213.038 38.7215 213.146 38.4607 213.141Z" fill="#242C42"/>
<path d="M43.7075 211.102C42.0471 211.071 42.2218 206.589 39.1361 204.391C36.6862 202.596 36.9346 206.039 37.4649 208.846C37.6716 209.996 38.2206 211.058 39.0402 211.893C39.8598 212.727 40.9121 213.296 42.0597 213.524C43.1263 213.812 44.2401 213.879 45.3331 213.72" fill="white"/>
<path d="M43.7075 211.102C42.0471 211.071 42.2218 206.589 39.1361 204.391C36.6862 202.596 36.9346 206.039 37.4649 208.846C37.6716 209.996 38.2206 211.058 39.0402 211.893C39.8598 212.727 40.9121 213.296 42.0597 213.524C43.1263 213.812 44.2401 213.879 45.3331 213.72" fill="#242C42"/>
<path d="M43.9986 214.7C43.2683 214.686 42.5424 214.582 41.8263 214.388C40.5572 214.139 39.3514 213.489 38.4008 212.521C37.4501 211.553 36.8225 210.337 36.5833 209.004C35.9537 205.67 36.1337 203.888 37.1706 203.235C37.8502 202.807 38.69 202.953 39.666 203.668C41.534 204.998 42.3314 207.049 42.9134 208.546C43.1527 209.162 43.515 210.094 43.7423 210.211C44.2369 210.221 44.6218 210.627 44.6124 211.121C44.603 211.616 44.1851 212.008 43.6904 211.999C42.3221 211.973 41.7983 210.623 41.2427 209.196C40.7145 207.837 40.0564 206.148 38.6157 205.121C38.3787 204.948 38.218 204.866 38.1211 204.826C38.0223 205.118 37.8527 206.072 38.3455 208.68C38.5222 209.665 38.9831 210.556 39.6796 211.265C40.376 211.974 41.2598 212.451 42.2341 212.644C43.249 212.915 44.2294 212.975 45.2047 212.833C45.6946 212.761 46.1498 213.102 46.2212 213.592C46.2925 214.082 45.9522 214.536 45.4624 214.607C44.9743 214.678 44.4851 214.709 43.9986 214.7Z" fill="#242C42"/>
<path d="M64.8482 204.192C64.8482 204.192 62.5312 202.488 57.9394 203.926C53.3477 205.364 47.8375 211.884 46.6061 211.307C45.4574 210.62 44.5958 209.542 44.1798 208.271C43.5026 206.882 42.1792 204.868 41.2214 206.449C39.0904 209.909 44.6395 213.991 44.6395 213.991C44.6395 213.991 45.4048 214.664 49.7679 214.223C54.1309 213.783 63.985 212.594 63.985 212.594" fill="white"/>
<path d="M64.8482 204.192C64.8482 204.192 62.5312 202.488 57.9394 203.926C53.3477 205.364 47.8375 211.884 46.6061 211.307C45.4574 210.62 44.5958 209.542 44.1798 208.271C43.5026 206.882 42.1792 204.868 41.2214 206.449C39.0904 209.909 44.6395 213.991 44.6395 213.991C44.6395 213.991 45.4048 214.664 49.7679 214.223C54.1309 213.783 63.985 212.594 63.985 212.594" fill="#E5E5E5"/>
<path d="M46.8312 215.267C45.0292 215.233 44.3228 214.907 44.0477 214.664C43.8549 214.526 37.9243 210.094 40.4585 205.98C41.0101 205.069 41.7106 204.95 42.0965 204.976C43.0969 205.022 44.0697 205.998 44.986 207.878L45.0314 207.992C45.3558 208.984 46.003 209.835 46.8678 210.413C47.4171 210.19 48.7476 209.086 49.8323 208.186C52.1265 206.283 54.9816 203.914 57.6715 203.071C62.6384 201.514 65.2696 203.39 65.3792 203.47C65.7779 203.764 65.8631 204.325 65.5705 204.724C65.2798 205.119 64.7232 205.207 64.3244 204.92C64.2262 204.851 62.2292 203.521 58.2074 204.781C55.8547 205.518 53.1498 207.762 50.9768 209.566C48.526 211.599 47.2938 212.621 46.2259 212.119L46.146 212.077C44.8307 211.29 43.8393 210.062 43.3487 208.612C42.7885 207.477 42.2922 206.943 42.0663 206.801C42.0452 206.826 42.0185 206.863 41.988 206.914C40.3953 209.499 44.7986 212.982 45.1493 213.253C45.2915 213.315 46.2842 213.674 49.6781 213.332C53.9819 212.898 63.7794 211.716 63.8774 211.704C64.3608 211.643 64.8149 211.994 64.8745 212.486C64.9342 212.978 64.5842 213.424 64.0928 213.483C63.9939 213.496 54.1793 214.678 49.8576 215.115C48.6048 215.241 47.6144 215.282 46.8312 215.267ZM45.1572 213.259C45.1652 213.265 45.1705 213.269 45.1714 213.27C45.1714 213.268 45.1652 213.264 45.1572 213.259Z" fill="#242C42"/>
<path d="M116.779 261.449L120.959 238.35L134.491 213.186L145.224 181.987L153.38 185.88L154.816 228.525L131.618 263.669C131.207 264.294 130.45 264.596 129.721 264.428L116.779 261.449Z" fill="#628AEE"/>
<path d="M130.066 265.369C129.884 265.366 129.702 265.344 129.519 265.302L116.577 262.321C116.112 262.215 115.811 261.759 115.896 261.288L120.076 238.191C120.093 238.098 120.125 238.009 120.169 237.925L133.667 212.825L144.375 181.696C144.458 181.455 144.64 181.259 144.876 181.16C145.112 181.061 145.378 181.067 145.609 181.178L153.766 185.071C154.068 185.215 154.264 185.515 154.275 185.85L155.71 228.494C155.716 228.68 155.664 228.862 155.562 229.018L132.366 264.163C131.854 264.94 130.975 265.386 130.066 265.369ZM117.813 260.766L129.922 263.556C130.282 263.64 130.665 263.486 130.87 263.176L153.909 228.269L152.502 186.454L145.743 183.229L135.338 213.477C135.322 213.524 135.302 213.567 135.28 213.61L121.815 238.649L117.813 260.766Z" fill="#242C42"/>
<path d="M121.614 239.361L117.745 262.792C117.627 263.5 116.767 263.79 116.245 263.298L108.278 255.788C108.052 255.574 107.953 255.259 108.015 254.954L112.557 232.935C112.693 232.271 113.489 231.993 114.009 232.428L121.304 238.528C121.548 238.731 121.665 239.048 121.614 239.361Z" fill="white"/>
<path d="M116.825 264.438C116.387 264.43 115.96 264.262 115.63 263.95L107.663 256.44C107.208 256.01 107.011 255.389 107.137 254.775L111.679 232.754C111.807 232.131 112.243 231.632 112.845 231.423C113.444 231.212 114.095 231.332 114.584 231.741L121.878 237.84C122.364 238.247 122.601 238.885 122.498 239.506L118.628 262.939C118.52 263.593 118.063 264.132 117.434 264.344C117.234 264.412 117.029 264.442 116.825 264.438ZM113.434 233.116L108.892 255.136L116.859 262.646L120.729 239.216L113.434 233.116Z" fill="#242C42"/>
<path d="M210.052 176.926C210.052 176.926 227.083 177.815 232.875 180.98C238.667 184.144 240.103 203.033 240.103 203.033L257.974 239.539C257.974 239.539 303.541 206.479 307.415 203.19C311.287 199.902 312.317 197.37 316.233 194.783C320.15 192.196 321.556 192.185 326.568 192.09C331.579 191.994 332.31 192.699 331.978 194.125C331.646 195.552 329.858 195.96 328.422 195.987C326.859 196.143 325.308 196.413 323.784 196.793L338.208 202.246C341.825 203.599 340.998 197.887 344.214 197.826C347.43 197.765 347.243 206.007 341.947 210.041C336.652 214.074 333.026 213.066 328.741 212.789C324.456 212.512 314.392 211.282 314.392 211.282C314.392 211.282 287.299 236.126 277.447 245.255C267.594 254.384 254.16 263.223 249.08 259.745C244.002 256.268 224.413 221.574 224.413 221.574L211.64 189.622C211.64 189.622 207.257 182.558 210.052 176.926Z" fill="white"/>
<path d="M210.052 176.926C210.052 176.926 227.083 177.815 232.875 180.98C238.667 184.144 240.103 203.033 240.103 203.033L257.974 239.539C257.974 239.539 303.541 206.479 307.415 203.19C311.287 199.902 312.317 197.37 316.233 194.783C320.15 192.196 321.556 192.185 326.568 192.09C331.579 191.994 332.31 192.699 331.978 194.125C331.646 195.552 329.858 195.96 328.422 195.987C326.859 196.143 325.308 196.413 323.784 196.793L338.208 202.246C341.825 203.599 340.998 197.887 344.214 197.826C347.43 197.765 347.243 206.007 341.947 210.041C336.652 214.074 333.026 213.066 328.741 212.789C324.456 212.512 314.392 211.282 314.392 211.282C314.392 211.282 287.299 236.126 277.447 245.255C267.594 254.384 254.16 263.223 249.08 259.745C244.002 256.268 224.413 221.574 224.413 221.574L211.64 189.622C211.64 189.622 207.257 182.558 210.052 176.926Z" fill="#E5E5E5"/>
<path d="M252.111 261.415C250.752 261.441 249.553 261.156 248.574 260.486C243.382 256.931 224.437 223.439 223.633 222.015L223.58 221.908L210.836 190.025C210.344 189.206 206.388 182.296 209.25 176.529L209.46 176.105L209.929 176.04C210.439 175.97 222.47 174.355 228.452 177.624C234.382 180.865 240.461 201.087 240.941 202.708L258.31 238.187C264.615 233.609 303.324 205.487 306.834 202.507C308.465 201.123 309.571 199.882 310.643 198.681C312.072 197.079 313.421 195.567 315.739 194.036C319.826 191.336 321.498 191.29 326.382 191.197C330.134 191.145 331.771 191.437 332.523 192.367C333.132 193.12 332.921 194.03 332.851 194.33C332.484 195.906 330.876 196.837 328.439 196.883C327.975 196.931 327.502 196.991 327.027 197.062L338.525 201.409C339.604 201.814 339.901 201.479 340.706 199.877C341.323 198.65 342.169 196.968 344.197 196.93C345.43 196.906 346.414 197.691 346.899 199.082C347.858 201.837 346.859 207.427 342.491 210.754C337.617 214.466 333.913 214.135 330.33 213.817C329.789 213.769 329.242 213.721 328.684 213.684C324.916 213.441 316.632 212.455 314.694 212.222C311.68 214.987 287.233 237.41 278.056 245.913C271.301 252.173 259.416 261.276 252.111 261.415ZM225.223 221.186C230.668 230.826 245.568 256.255 249.586 259.006C253.951 261.997 266.89 253.815 276.837 244.598C286.58 235.572 313.514 210.87 313.786 210.622L314.091 210.343L314.5 210.393C314.601 210.405 324.589 211.623 328.798 211.895C329.372 211.933 329.934 211.982 330.489 212.031C334.027 212.345 337.083 212.619 341.404 209.328C344.912 206.657 345.982 201.903 345.205 199.672C344.984 199.034 344.656 198.714 344.232 198.722C343.33 198.739 342.912 199.479 342.307 200.683C341.622 202.042 340.596 204.096 337.894 203.086L320.784 196.618L323.567 195.924C325.13 195.534 326.733 195.255 328.333 195.096C329.584 195.069 330.913 194.75 331.105 193.923C331.171 193.641 331.151 193.521 331.13 193.495C330.988 193.318 330.259 192.916 326.584 192.986C326.555 192.986 326.526 192.987 326.499 192.987C321.559 193.081 320.382 193.117 316.727 195.532C314.604 196.934 313.389 198.297 311.981 199.874C310.869 201.12 309.72 202.409 307.995 203.874C304.139 207.147 260.361 238.914 258.5 240.265L257.638 240.89L239.243 203.285C237.522 197.416 232.075 181.647 227.593 179.197C222.758 176.554 212.944 177.493 210.657 177.756C208.539 182.8 212.363 189.086 212.403 189.15L212.473 189.29L225.223 221.186Z" fill="#242C42"/>
<path d="M342.611 208.727C342.611 208.727 345.442 200.225 343.933 199.551C342.424 198.877 340.954 200.31 340.428 204.103C339.901 207.897 338.045 209.397 337.077 209.685" fill="white"/>
<path d="M344.625 206.865C344.625 206.865 345.472 200.224 343.933 199.551C342.393 198.877 340.955 200.31 340.428 204.103C339.901 207.897 338.045 209.397 337.077 209.685" fill="#242C42"/>
<path d="M337.093 210.582C336.7 210.59 336.336 210.336 336.218 209.941C336.077 209.466 336.348 208.967 336.822 208.826C337.415 208.65 339.061 207.434 339.541 203.98C339.913 201.294 340.773 199.505 342.028 198.809C342.73 198.419 343.536 198.392 344.298 198.733C344.855 198.981 346.55 199.737 343.46 209.011C343.303 209.48 342.798 209.737 342.327 209.578C341.857 209.422 341.603 208.915 341.76 208.445C342.968 204.819 343.71 201.193 343.438 200.321C343.188 200.246 343.02 200.309 342.898 200.376C342.631 200.524 341.729 201.238 341.315 204.227C340.767 208.178 338.827 210.1 337.332 210.544C337.253 210.567 337.172 210.581 337.093 210.582Z" fill="#242C42"/>
<path d="M340.366 210.281C340.366 210.281 343.932 199.551 339.619 202.459C336.442 204.598 337.36 209.62 335.7 209.651" fill="white"/>
<path d="M341.236 210.383C341.236 210.383 343.933 199.551 339.588 202.46C336.412 204.599 337.33 209.62 335.67 209.652" fill="#242C42"/>
<path d="M340.384 211.177C340.285 211.179 340.184 211.163 340.085 211.13C339.615 210.974 339.359 210.468 339.516 209.998C340.537 206.923 341.107 203.629 340.766 202.869C340.664 202.896 340.459 202.974 340.12 203.202C338.633 204.203 338.191 206.08 337.835 207.586C337.495 209.029 337.144 210.52 335.717 210.547C335.222 210.557 334.813 210.163 334.804 209.668C334.795 209.2 335.146 208.809 335.602 208.76C335.771 208.528 335.955 207.751 336.091 207.175C336.495 205.459 337.049 203.109 339.119 201.716C340.226 200.968 341.136 200.859 341.829 201.385C343.523 202.671 342.173 207.687 341.217 210.563C341.094 210.933 340.753 211.17 340.384 211.177Z" fill="#242C42"/>
<path d="M314.529 202.741C314.529 202.741 316.846 201.037 321.438 202.475C326.028 203.913 331.54 210.433 332.771 209.856C333.92 209.17 334.781 208.091 335.197 206.819C335.859 205.431 337.1 204.585 337.954 206.214C338.808 207.842 336.417 212.748 336.417 212.748C336.417 212.748 334.941 213.837 331.26 213.055C327.103 212.139 322.886 211.524 318.64 211.216" fill="white"/>
<path d="M314.89 203.389C314.89 203.389 317.207 201.685 321.798 203.123C326.389 204.562 331.901 211.08 333.131 210.504C334.28 209.817 335.142 208.739 335.558 207.467C336.219 206.079 337.461 205.233 338.315 206.862C339.169 208.491 336.778 213.396 336.778 213.396C336.778 213.396 335.302 214.486 331.62 213.703C327.939 212.921 320.719 210.74 318.46 210.783" fill="#E5E5E5"/>
<path d="M333.917 214.233C333.138 214.247 332.195 214.17 331.073 213.932C326.964 213.027 322.761 212.414 318.575 212.11C318.081 212.074 317.71 211.645 317.745 211.151C317.781 210.658 318.208 210.289 318.705 210.323C322.976 210.633 327.266 211.257 331.453 212.18C333.959 212.711 335.291 212.295 335.733 212.1C336.735 209.967 337.529 207.334 337.159 206.63C337 206.328 336.869 206.229 336.835 206.219C336.749 206.222 336.373 206.461 336.029 207.158C335.539 208.61 334.545 209.84 333.23 210.627L333.151 210.669C332.076 211.171 330.848 210.148 328.399 208.115C326.226 206.312 323.522 204.068 321.17 203.331C317.132 202.065 315.134 203.413 315.051 203.47C314.65 203.75 314.09 203.659 313.805 203.26C313.519 202.862 313.603 202.311 313.998 202.02C314.107 201.94 316.737 200.064 321.705 201.621C324.395 202.463 327.25 204.833 329.544 206.736C330.629 207.635 331.959 208.739 332.508 208.962C333.373 208.385 334.021 207.532 334.346 206.54L334.388 206.434C334.979 205.194 335.884 204.445 336.808 204.427C337.26 204.419 338.111 204.585 338.747 205.798C339.735 207.681 337.83 211.895 337.223 213.142L337.126 213.34L336.949 213.469C336.817 213.567 335.89 214.195 333.917 214.233Z" fill="#242C42"/>
<path d="M261.104 259.278L257.286 236.173L245.016 210.985L232.496 177.577L227.905 183.646L226.687 226.287L247.64 261.366C248.047 262.045 248.851 262.378 249.619 262.184L261.104 259.278Z" fill="#628AEE"/>
<path d="M249.239 263.134C248.289 263.152 247.37 262.661 246.871 261.825L225.918 226.746C225.83 226.6 225.786 226.431 225.791 226.261L227.009 183.621C227.014 183.434 227.078 183.254 227.19 183.105L231.781 177.037C231.979 176.776 232.296 176.644 232.625 176.691C232.948 176.739 233.221 176.957 233.336 177.263L245.856 210.671L258.091 235.781C258.13 235.859 258.155 235.941 258.169 236.027L261.988 259.132C262.064 259.592 261.775 260.033 261.323 260.147L249.838 263.053C249.639 263.104 249.439 263.13 249.239 263.134ZM227.591 226.052L248.41 260.906C248.611 261.244 249.019 261.41 249.399 261.315L260.085 258.61L256.422 236.449L244.211 211.378L232.228 179.417L228.793 183.958L227.591 226.052Z" fill="#242C42"/>
<path d="M256.691 237.147L260.213 260.478C260.324 261.214 261.231 261.502 261.746 260.964L268.781 253.623C268.981 253.414 269.068 253.122 269.015 252.838L264.889 230.898C264.759 230.205 263.917 229.927 263.4 230.406L256.968 236.356C256.751 236.557 256.646 236.854 256.691 237.147Z" fill="white"/>
<path d="M261.138 262.138C260.945 262.141 260.749 262.114 260.558 262.053C259.9 261.845 259.429 261.292 259.326 260.611L255.805 237.281C255.714 236.695 255.921 236.103 256.358 235.698L262.791 229.747C263.27 229.305 263.95 229.157 264.57 229.361C265.189 229.565 265.649 230.09 265.77 230.73L269.896 252.673C270.001 253.24 269.826 253.826 269.429 254.242L262.394 261.584C262.056 261.936 261.605 262.129 261.138 262.138ZM257.577 237.013L261.099 260.344L268.133 253.004L264.007 231.062L257.576 237.015L257.577 237.013Z" fill="#242C42"/>
<path d="M176.402 170.447L146.408 182.176C146.408 182.176 154.82 233.949 155.146 243.422C155.472 252.896 149.637 278.899 151.645 281.583C153.654 284.268 162.213 283.767 162.213 283.767L228.951 282.358C229.562 282.344 229.99 281.737 229.805 281.153C229.193 279.214 227.919 274.879 226.452 268.128C225.279 262.915 228.134 224.605 228.825 215.861C229.516 207.117 233.532 177.537 233.532 177.537C233.532 177.537 208.638 170.487 201.909 169.47C195.18 168.454 181.37 167.111 176.402 170.447Z" fill="#628AEE"/>
<path d="M160.507 284.708C157.748 284.708 152.624 284.387 150.928 282.12C149.741 280.533 150.397 275.037 152.177 262.877C153.268 255.421 154.397 247.71 154.25 243.453C153.93 234.143 145.608 182.836 145.524 182.319C145.457 181.902 145.689 181.495 146.082 181.341L175.987 169.648C181.772 165.883 197.378 167.879 202.043 168.584C208.751 169.598 232.757 176.386 233.776 176.675C234.205 176.796 234.48 177.215 234.421 177.658C234.38 177.953 230.4 207.312 229.718 215.932C228.452 231.966 226.322 263.468 227.327 267.93C228.779 274.614 230.039 278.914 230.66 280.883C230.834 281.435 230.741 282.023 230.402 282.496C230.066 282.964 229.544 283.241 228.971 283.254L162.232 284.663C162.018 284.675 161.382 284.708 160.507 284.708ZM147.409 182.747C148.463 189.267 155.735 234.464 156.042 243.392C156.194 247.81 155.053 255.602 153.95 263.137C152.92 270.178 151.507 279.823 152.364 281.047C153.616 282.722 159.037 283.055 162.161 282.872L228.932 281.461C228.319 279.425 227.043 275.064 225.577 268.318C224.264 262.487 227.78 217.695 227.931 215.79C228.554 207.913 231.903 182.913 232.54 178.188C228.341 177.009 207.72 171.255 201.775 170.357C192.448 168.948 181.016 168.428 176.902 171.191C176.847 171.228 176.79 171.258 176.729 171.282L147.409 182.747Z" fill="#242C42"/>
<path d="M159.247 278.799C158.978 278.799 158.712 278.678 158.535 278.448C158.234 278.056 158.309 277.493 158.701 277.192L187.872 254.805C188.265 254.503 188.828 254.577 189.129 254.97C189.43 255.362 189.356 255.925 188.963 256.226L159.792 278.613C159.629 278.739 159.437 278.799 159.247 278.799Z" fill="#242C42"/>
<path d="M173.565 262.249C173.318 262.249 173.073 262.148 172.896 261.949C172.567 261.579 172.599 261.012 172.969 260.683L193.559 242.36C193.928 242.03 194.495 242.064 194.824 242.434C195.153 242.804 195.12 243.371 194.751 243.7L174.16 262.022C173.99 262.175 173.777 262.249 173.565 262.249Z" fill="#242C42"/>
<path d="M181.038 161.977C181.038 161.977 174.817 163.841 173.578 165.079C172.34 166.316 171.401 172.897 170.149 176.259C168.897 179.621 164.867 185.576 166.119 185.889C167.371 186.202 177.921 180.911 177.921 180.911L190.048 194.646L201.551 180.311C201.551 180.311 210.561 187.14 211.174 186.202C211.787 185.263 207.131 174.095 206.831 169.443C206.532 164.791 199.672 163.228 195.643 162.928C191.613 162.628 181.038 161.977 181.038 161.977Z" fill="white"/>
<path d="M190.048 195.544C189.791 195.544 189.546 195.433 189.376 195.241L177.705 182.022C172.872 184.427 167.144 187.072 165.901 186.759C165.544 186.67 165.252 186.426 165.103 186.09C164.692 185.168 165.344 183.782 167.17 180.343C167.998 178.783 168.854 177.168 169.309 175.947C169.799 174.629 170.253 172.746 170.691 170.924C171.522 167.473 172.075 165.313 172.944 164.445C174.276 163.115 179.706 161.44 180.78 161.118C180.882 161.088 180.987 161.075 181.092 161.082C181.198 161.088 191.72 161.737 195.709 162.035C201.317 162.451 207.417 164.603 207.726 169.388C207.879 171.759 209.29 176.131 210.425 179.645C212.087 184.792 212.399 185.965 211.924 186.692C211.759 186.945 211.498 187.113 211.186 187.167C210.122 187.368 206.926 185.466 201.705 181.551L190.747 195.208C190.582 195.415 190.333 195.536 190.069 195.543C190.062 195.543 190.056 195.544 190.048 195.544ZM177.92 180.015C178.171 180.015 178.417 180.121 178.592 180.318L190.015 193.255L200.851 179.751C201.154 179.374 201.704 179.303 202.091 179.598C205.038 181.831 208.554 184.252 210.201 185.091C209.924 183.928 209.271 181.905 208.719 180.195C207.493 176.399 206.104 172.098 205.937 169.503C205.628 164.708 196.603 163.899 195.575 163.823C191.868 163.547 182.486 162.965 181.143 162.882C178.647 163.639 174.94 164.985 174.211 165.713C173.655 166.269 172.949 169.201 172.434 171.344C171.983 173.217 171.516 175.154 170.988 176.573C170.492 177.906 169.607 179.572 168.752 181.184C168.138 182.34 167.282 183.953 166.934 184.882C168.688 184.328 173.375 182.187 177.518 180.11C177.646 180.046 177.784 180.015 177.92 180.015Z" fill="#242C42"/>
<path d="M176.504 142.257V163.099L189.505 187.019L201.909 162.799V141.046L176.504 142.257Z" fill="#E5E5E5"/>
<path d="M189.506 187.915C189.178 187.915 188.875 187.735 188.718 187.447L175.717 163.526C175.645 163.395 175.607 163.248 175.607 163.099V142.257C175.607 141.778 175.984 141.384 176.462 141.362L201.867 140.151C202.128 140.145 202.351 140.229 202.528 140.397C202.705 140.566 202.806 140.801 202.806 141.046V162.799C202.806 162.942 202.771 163.082 202.707 163.208L190.304 187.428C190.152 187.724 189.849 187.912 189.517 187.915C189.513 187.915 189.51 187.915 189.506 187.915ZM177.4 162.87L189.482 185.099L201.014 162.583V141.986L177.4 143.111V162.87Z" fill="#242C42"/>
<path d="M162.944 134.075L163.933 133.982L163.935 133.848L162.944 134.075Z" fill="#242C42"/>
<path d="M170.293 126.703C170.293 126.703 163.813 119.574 161.394 124.409C158.974 129.245 164.471 138.011 166.606 140.226C168.742 142.442 171.296 138.105 171.296 138.105" fill="#E5E5E5"/>
<path d="M167.91 141.752C167.353 141.745 166.643 141.555 165.961 140.848C164.038 138.853 157.808 129.572 160.592 124.009C161.375 122.442 162.517 121.977 163.336 121.865C166.592 121.424 170.519 125.619 170.955 126.1C171.288 126.466 171.262 127.033 170.896 127.365C170.531 127.698 169.964 127.672 169.63 127.306C168.222 125.76 165.335 123.404 163.58 123.641C163.211 123.692 162.666 123.869 162.195 124.81C160.152 128.893 164.87 137.135 167.251 139.605C167.591 139.956 167.847 139.976 168.031 139.954C168.946 139.847 170.105 138.355 170.524 137.649C170.776 137.224 171.326 137.082 171.751 137.333C172.178 137.585 172.318 138.133 172.068 138.56C171.891 138.859 170.286 141.493 168.242 141.734C168.14 141.746 168.028 141.753 167.91 141.752Z" fill="#242C42"/>
<path d="M210.936 127.097C210.936 127.097 217.748 120.261 219.931 125.196C222.113 130.132 216.229 138.657 213.996 140.76C211.765 142.863 209.483 138.423 209.483 138.423" fill="#E5E5E5"/>
<path d="M212.695 142.221C212.55 142.22 212.415 142.205 212.293 142.184C210.283 141.839 208.844 139.139 208.686 138.832C208.46 138.392 208.633 137.854 209.072 137.627C209.511 137.4 210.051 137.573 210.28 138.012C210.652 138.732 211.709 140.266 212.599 140.418C212.774 140.447 213.027 140.441 213.382 140.108C215.382 138.224 221.077 130.006 219.111 125.559C218.688 124.602 218.156 124.401 217.793 124.334C215.829 123.971 212.564 126.733 211.571 127.729C211.221 128.08 210.655 128.081 210.304 127.731C209.953 127.382 209.953 126.815 210.302 126.464C210.761 126.002 214.892 121.974 218.119 122.571C218.93 122.722 220.044 123.237 220.751 124.834C223.241 130.466 216.547 139.589 214.611 141.412C213.925 142.057 213.238 142.228 212.695 142.221Z" fill="#242C42"/>
<path d="M212.928 122.986C212.73 140.077 202.398 163.514 189.99 163.371C177.583 163.227 167.796 139.556 167.994 122.466C168.192 105.375 178.412 91.6487 190.819 91.7925C203.227 91.9363 213.126 105.896 212.928 122.986Z" fill="#E5E5E5"/>
<path d="M189.98 164.267C183.926 164.197 178.059 159.012 173.461 149.669C169.436 141.492 166.998 131.064 167.098 122.455C167.301 104.905 177.947 90.747 190.83 90.8963C203.712 91.0456 214.027 105.446 213.824 122.997C213.63 139.724 203.533 164.424 189.98 164.267ZM190.809 92.6887C178.915 92.5509 169.082 105.913 168.89 122.476C168.793 130.821 171.161 140.937 175.069 148.877C179.292 157.457 184.735 162.413 190.001 162.474C195.266 162.535 200.823 157.707 205.243 149.227C209.334 141.379 211.935 131.32 212.032 122.976C212.223 106.413 202.703 92.8265 190.809 92.6887Z" fill="#242C42"/>
<path d="M190.704 142.506C190.274 142.501 189.823 142.397 189.368 142.191L187.238 141.213C186.789 141.006 186.59 140.475 186.797 140.025C187.004 139.575 187.535 139.375 187.986 139.584L190.112 140.56C190.82 140.879 191.161 140.61 191.274 140.521C191.756 140.138 192.003 139.251 191.846 138.458C191.477 136.592 190.37 128.269 190.323 127.916C190.258 127.426 190.603 126.974 191.094 126.909C191.58 126.844 192.035 127.189 192.1 127.68C192.112 127.766 193.247 136.3 193.604 138.111C193.896 139.584 193.406 141.117 192.388 141.925C191.891 142.318 191.317 142.513 190.704 142.506Z" fill="#242C42"/>
<path d="M208.253 114.354C208.253 114.354 206.647 118.734 208.492 120.573C210.337 122.412 209.993 125.252 209.654 129.055C209.314 132.859 210.207 135.028 211.481 133.738C212.756 132.448 214.219 114.937 214.233 113.678C214.248 112.419 208.253 114.354 208.253 114.354Z" fill="#242C42"/>
<path d="M210.765 135.007C210.499 135.004 210.287 134.93 210.161 134.872C208.492 134.097 208.626 130.491 208.762 128.976L208.804 128.504C209.109 125.119 209.329 122.675 207.858 121.208C205.671 119.027 207.227 114.549 207.412 114.046C207.507 113.787 207.715 113.586 207.977 113.501C211.557 112.345 213.795 112.073 214.629 112.689C214.952 112.927 215.134 113.291 215.129 113.688C215.127 113.866 213.829 132.637 212.118 134.368C211.615 134.877 211.137 135.011 210.765 135.007ZM208.961 115.071C208.583 116.333 208.087 118.904 209.124 119.939C211.19 121.998 210.924 124.939 210.589 128.664L210.547 129.135C210.349 131.356 210.621 132.644 210.846 133.104C211.75 131.742 213.139 117.394 213.318 114.143C212.526 114.151 210.733 114.529 208.961 115.071Z" fill="#242C42"/>
<path d="M168.289 119.859L168.798 129.592C169.044 129.681 169.307 129.721 169.569 129.708C169.832 129.694 170.089 129.628 170.325 129.513C170.561 129.399 170.772 129.238 170.946 129.04C171.118 128.842 171.249 128.612 171.331 128.363C171.974 126.49 170.473 120.583 172.08 117.385C173.688 114.188 179.675 112.811 179.934 110.562C180.193 108.311 176.897 104.311 176.914 102.757C176.932 101.203 177.899 99.6604 185.664 107.256C193.428 114.851 207.869 116.619 215.416 114.826C222.964 113.033 214.014 101.618 212.147 99.0937C210.279 96.5704 217.192 98.5157 213.486 92.195C209.781 85.8742 196.644 81.6347 183.388 86.1895C170.134 90.7444 162.533 97.2604 164.337 103.87C166.142 110.479 168.289 119.859 168.289 119.859Z" fill="#242C42"/>
<path d="M169.436 130.607C169.113 130.603 168.795 130.544 168.491 130.433C168.153 130.31 167.922 129.997 167.903 129.639L167.398 119.983C167.19 119.08 165.167 110.31 163.473 104.106C161.566 97.1219 168.718 90.2834 183.097 85.3418C189.353 83.1923 196.147 82.8014 202.225 84.2423C207.862 85.5777 212.249 88.3112 214.26 91.7414C215.363 93.6221 215.714 95.0281 215.367 96.1642C214.997 97.3735 213.932 97.8837 213.228 98.2215C213.095 98.2863 212.915 98.373 212.788 98.4459C212.808 98.4784 212.835 98.5164 212.868 98.5607L213.155 98.9476C216.323 103.184 220.377 109.248 219.02 112.988C218.519 114.37 217.377 115.282 215.624 115.698C207.999 117.511 193.125 115.808 185.037 107.897C179.777 102.751 178.195 102.378 177.856 102.374C177.838 102.437 177.813 102.557 177.811 102.768C177.806 103.207 178.459 104.412 178.984 105.381C179.977 107.213 181.004 109.106 180.825 110.664C180.647 112.212 178.983 113.197 177.058 114.337C175.428 115.302 173.581 116.396 172.881 117.788C172.013 119.514 172.177 122.357 172.31 124.642C172.41 126.379 172.489 127.75 172.178 128.654C172.062 129.007 171.874 129.34 171.622 129.629C171.367 129.92 171.063 130.151 170.718 130.319C170.371 130.487 170.001 130.583 169.617 130.603C169.557 130.606 169.496 130.607 169.436 130.607ZM195.145 85.1776C191.49 85.1352 187.577 85.6985 183.68 87.0373C170.508 91.5634 163.601 97.7676 165.202 103.634C166.992 110.185 169.142 119.566 169.163 119.659C169.175 119.71 169.181 119.761 169.184 119.812L169.654 128.799C169.75 128.782 169.846 128.751 169.935 128.708C170.064 128.645 170.178 128.557 170.273 128.449C170.365 128.343 170.435 128.219 170.48 128.083C170.679 127.502 170.599 126.101 170.52 124.746C170.376 122.248 170.196 119.137 171.28 116.982C172.216 115.122 174.303 113.886 176.145 112.795C177.468 112.011 178.967 111.123 179.044 110.459C179.158 109.464 178.189 107.673 177.408 106.235C176.626 104.791 176.008 103.651 176.018 102.747C176.034 101.44 176.627 100.922 177.12 100.718C178.213 100.266 180.155 100.613 186.291 106.615C193.916 114.075 207.986 115.67 215.21 113.954C216.353 113.683 217.048 113.166 217.335 112.377C218.12 110.212 216.231 106.054 211.72 100.021L211.427 99.6267C211.266 99.4106 210.778 98.7507 210.967 97.9892C211.155 97.2286 211.844 96.8969 212.453 96.6054C213.093 96.2982 213.522 96.0657 213.652 95.6406C213.78 95.2235 213.721 94.3659 212.714 92.6476C210.226 88.4052 203.335 85.2725 195.145 85.1776Z" fill="#242C42"/>
<path d="M176.729 97.3272C176.351 97.3228 176.002 97.0776 175.884 96.698C175.737 96.2257 176 95.7224 176.473 95.5746C182.958 93.5505 189.92 93.1257 196.6 94.3477C197.088 94.4367 197.41 94.9038 197.32 95.3904C197.231 95.8769 196.765 96.2032 196.279 96.1115C189.883 94.9421 183.218 95.348 177.007 97.2865C176.915 97.315 176.821 97.3282 176.729 97.3272Z" fill="white"/>
<path d="M207.022 109.208C206.996 109.207 206.969 109.205 206.943 109.203C203.317 108.837 199.844 107.792 196.621 106.099C185.476 100.692 177.312 99.944 176.39 99.8751L172.173 100.524C171.905 100.568 171.635 100.484 171.434 100.302L168.248 97.4055C167.881 97.0723 167.855 96.5064 168.188 96.1401C168.52 95.7738 169.088 95.7454 169.454 96.0795L172.323 98.6878L176.216 98.0885C176.276 98.0784 176.338 98.0774 176.4 98.0799C176.757 98.0992 185.298 98.6141 197.429 104.499C200.474 106.098 203.726 107.076 207.122 107.42C207.615 107.469 207.974 107.909 207.924 108.401C207.877 108.867 207.481 109.213 207.022 109.208Z" fill="white"/>
<path d="M211.792 108.299C211.468 108.296 211.157 108.115 211.001 107.805C210.779 107.363 210.958 106.824 211.399 106.602C211.585 106.51 211.748 106.382 211.881 106.223C212.015 106.063 212.114 105.881 212.175 105.681C212.234 105.483 212.254 105.278 212.231 105.07C212.208 104.864 212.143 104.667 212.041 104.485C211.797 104.053 211.947 103.507 212.378 103.263C212.81 103.018 213.355 103.17 213.6 103.601C213.823 103.995 213.961 104.423 214.012 104.871C214.062 105.322 214.022 105.771 213.889 106.203C213.757 106.636 213.544 107.031 213.253 107.377C212.962 107.723 212.608 108.001 212.204 108.205C212.072 108.271 211.93 108.301 211.792 108.299Z" fill="white"/>
<path d="M178.538 126.502C178.493 126.502 178.448 126.497 178.403 126.49C177.918 126.41 177.586 125.959 177.661 125.473C177.698 125.237 178.652 119.711 187.213 119.81C187.708 119.816 188.105 120.222 188.099 120.717C188.093 121.211 187.687 121.608 187.193 121.603C180.25 121.522 179.462 125.582 179.432 125.755C179.355 126.194 178.971 126.507 178.538 126.502Z" fill="#242C42"/>
<path d="M203.009 126.789C202.572 126.784 202.193 126.461 202.132 126.017C202.104 125.835 201.403 121.767 194.47 121.687C193.974 121.681 193.578 121.275 193.584 120.78C193.589 120.286 193.995 119.889 194.49 119.894C203.052 119.994 203.877 125.54 203.908 125.776C203.973 126.267 203.627 126.717 203.136 126.782C203.093 126.787 203.051 126.79 203.009 126.789Z" fill="#242C42"/>
<path d="M184.329 129.912C183.001 129.896 181.744 129.263 180.695 128.08C180.367 127.71 180.4 127.145 180.77 126.816C181.141 126.487 181.708 126.522 182.036 126.891C183.445 128.48 185.245 128.5 186.693 126.944C187.031 126.583 187.597 126.561 187.959 126.899C188.322 127.237 188.342 127.803 188.005 128.166C186.928 129.323 185.656 129.927 184.329 129.912Z" fill="#242C42"/>
<path d="M197.794 130.068C196.466 130.052 195.21 129.419 194.159 128.237C193.83 127.867 193.864 127.301 194.233 126.972C194.603 126.644 195.17 126.677 195.498 127.046C196.912 128.635 198.706 128.657 200.158 127.1C200.496 126.739 201.063 126.718 201.425 127.056C201.787 127.393 201.806 127.96 201.469 128.322C200.391 129.479 199.119 130.083 197.794 130.068Z" fill="#242C42"/>
<path d="M188.872 149.286C185.1 149.243 182.953 147.77 182.821 147.677C182.417 147.392 182.322 146.832 182.607 146.428C182.892 146.025 183.448 145.928 183.852 146.21C184.02 146.327 188.055 149.023 195.069 146.251C195.524 146.07 196.049 146.295 196.231 146.755C196.413 147.215 196.188 147.737 195.727 147.919C193.066 148.971 190.764 149.308 188.872 149.286Z" fill="#242C42"/>
<path d="M280.467 151.101C279.462 152.779 280 154.924 281.677 155.928L313.086 174.741L316.853 168.451" fill="#F5F6FA"/>
<path d="M280.467 151.101C279.462 152.779 280 154.924 281.677 155.928L313.086 174.74L316.853 168.451L284.176 145.405L280.467 151.101Z" fill="#F5F6FA"/>
<path d="M313.072 175.638C312.916 175.636 312.762 175.592 312.626 175.511L281.217 156.698C280.2 156.089 279.483 155.127 279.197 153.986C278.911 152.846 279.089 151.659 279.698 150.641C279.704 150.631 279.71 150.623 279.716 150.613L283.426 144.916C283.559 144.712 283.769 144.572 284.008 144.525C284.246 144.479 284.493 144.532 284.694 144.672L317.37 167.719C317.754 167.989 317.864 168.51 317.622 168.912L313.855 175.203C313.733 175.406 313.535 175.554 313.305 175.611C313.228 175.63 313.15 175.64 313.072 175.638ZM281.228 151.576C280.871 152.18 280.768 152.88 280.936 153.551C281.105 154.227 281.531 154.797 282.138 155.16L312.778 173.512L315.657 168.704L284.42 146.673L281.228 151.576Z" fill="#364261"/>
<path d="M313.815 119.79C313.811 119.79 313.807 119.79 313.803 119.789C313.479 119.78 313.185 119.597 313.035 119.309L311.509 116.392L308.219 116.424C307.88 116.432 307.595 116.255 307.433 115.974C307.271 115.692 307.275 115.345 307.442 115.068L314.172 103.829C314.426 103.404 314.976 103.267 315.401 103.521C315.827 103.775 315.964 104.325 315.71 104.75L309.801 114.617L312.04 114.595C312.368 114.582 312.687 114.777 312.844 115.076L313.882 117.061L319.791 107.195C320.045 106.769 320.596 106.632 321.021 106.886C321.446 107.14 321.583 107.691 321.329 108.116L314.598 119.354C314.433 119.629 314.135 119.795 313.815 119.79Z" fill="#364261"/>
<path d="M313.473 103.41C311.67 102.331 309.323 102.919 308.244 104.722L282.425 147.831L280.466 151.102C281.546 149.299 283.893 148.71 285.696 149.79L305.028 161.368L319.535 170.059L347.313 123.679L313.473 103.41Z" fill="#F5F6FA"/>
<path d="M319.521 170.955C319.365 170.953 319.211 170.91 319.075 170.829L285.235 150.559C283.853 149.732 282.061 150.183 281.235 151.563C280.98 151.987 280.429 152.125 280.006 151.87C279.581 151.616 279.443 151.065 279.697 150.641L307.474 104.261C308.119 103.184 309.147 102.423 310.369 102.116C311.591 101.811 312.856 101.996 313.933 102.641L347.773 122.91C348.198 123.165 348.337 123.715 348.082 124.14L320.305 170.519C320.183 170.723 319.984 170.871 319.754 170.928C319.677 170.948 319.599 170.956 319.521 170.955ZM283.821 148.354C284.619 148.367 285.423 148.582 286.156 149.021L319.227 168.83L346.083 123.988L313.012 104.18C312.345 103.779 311.56 103.665 310.804 103.855C310.047 104.044 309.411 104.517 309.013 105.182L283.133 148.393C283.36 148.364 283.59 148.35 283.821 148.354Z" fill="#364261"/>
<path d="M315.774 151.333C315.622 151.331 315.468 151.29 315.329 151.206L301.072 142.666C300.647 142.412 300.509 141.861 300.763 141.437C301.017 141.012 301.568 140.874 301.993 141.129L316.25 149.668C316.675 149.923 316.813 150.473 316.559 150.898C316.388 151.183 316.084 151.338 315.774 151.333Z" fill="#364261"/>
<path d="M312.636 156.574C312.483 156.572 312.33 156.532 312.19 156.448L297.934 147.908C297.508 147.654 297.37 147.102 297.624 146.678C297.879 146.253 298.429 146.114 298.855 146.37L313.111 154.909C313.537 155.164 313.675 155.714 313.421 156.139C313.249 156.424 312.946 156.579 312.636 156.574Z" fill="#364261"/>
<path d="M329.478 147.752L343.291 124.688L330.542 117.052C333.716 123.17 334.4 130.303 332.536 136.936L329.478 147.752Z" fill="#628AEE"/>
<path d="M315.108 139.925C314.301 139.912 313.508 139.687 312.797 139.262C311.723 138.619 310.967 137.595 310.668 136.381C310.372 135.177 310.559 133.93 311.194 132.869C311.448 132.444 311.999 132.306 312.423 132.561C312.849 132.816 312.987 133.366 312.733 133.791C312.341 134.443 312.226 135.212 312.409 135.953C312.593 136.7 313.058 137.329 313.718 137.725C314.371 138.115 315.139 138.231 315.881 138.047C316.627 137.864 317.255 137.399 317.651 136.738C318.367 135.543 318.052 134.467 316.449 132.624C315.701 131.765 313.423 129.149 315.06 126.412C316.381 124.208 319.25 123.488 321.454 124.808C323.656 126.129 324.377 128.997 323.057 131.201C322.802 131.626 322.251 131.762 321.828 131.509C321.402 131.255 321.265 130.705 321.519 130.281C322.332 128.924 321.889 127.159 320.533 126.346C319.174 125.534 317.411 125.977 316.599 127.333C315.928 128.453 316.299 129.722 317.801 131.447C319.298 133.166 320.632 135.249 319.189 137.659C318.546 138.733 317.523 139.49 316.309 139.788C315.911 139.886 315.507 139.932 315.108 139.925Z" fill="#364261"/>
<path d="M320.951 126.516C320.799 126.513 320.646 126.472 320.506 126.389C320.081 126.134 319.944 125.584 320.198 125.158L321.279 123.355C321.533 122.931 322.083 122.792 322.508 123.048C322.934 123.302 323.071 123.852 322.817 124.277L321.736 126.08C321.564 126.364 321.261 126.521 320.951 126.516Z" fill="#364261"/>
<path d="M312.162 141.193C312.01 141.191 311.856 141.15 311.717 141.066C311.292 140.811 311.155 140.262 311.409 139.836L312.514 137.99C312.768 137.565 313.319 137.427 313.743 137.681C314.169 137.935 314.306 138.486 314.052 138.912L312.946 140.757C312.775 141.042 312.472 141.198 312.162 141.193Z" fill="#364261"/>
<path d="M264.793 68.7459L225.39 44.4291C222.792 42.8259 221.919 39.3967 223.567 36.7268L236.527 15.7254C238.13 13.1274 241.558 12.2537 244.229 13.902L283.703 38.2638C286.301 39.867 287.175 43.2962 285.526 45.9661L272.522 67.0394C270.846 69.5932 267.463 70.3941 264.793 68.7459Z" fill="#F5F6FA"/>
<path d="M267.687 70.5016C266.538 70.4832 265.377 70.1607 264.322 69.5092L224.919 45.1915C223.453 44.2859 222.421 42.8648 222.015 41.1892C221.606 39.4966 221.886 37.7442 222.804 36.2557L235.764 15.2551C237.644 12.208 241.65 11.2593 244.699 13.1395L284.174 37.5014C285.64 38.4069 286.672 39.8281 287.078 41.5037C287.487 43.1963 287.207 44.9487 286.289 46.4372L273.286 67.5097C271.991 69.4825 269.861 70.5365 267.687 70.5016ZM241.373 13.9664C239.769 13.9407 238.19 14.7356 237.289 16.1966L224.329 37.1971C223.663 38.2755 223.46 39.5433 223.757 40.7672C224.052 41.9811 224.799 43.0114 225.861 43.6666L265.263 67.9834C267.486 69.3564 270.344 68.7246 271.773 66.5478L284.764 45.4958C285.43 44.4174 285.633 43.1496 285.336 41.9257C285.041 40.7118 284.294 39.6815 283.232 39.0263L243.757 14.6653C243.013 14.2061 242.189 13.9795 241.373 13.9664Z" fill="#364261"/>
<path d="M247.081 25.4285C246.011 27.1602 243.794 27.6849 242.063 26.6164C240.33 25.5479 239.806 23.3299 240.874 21.5982C241.943 19.8666 244.16 19.3419 245.893 20.4103C247.624 21.4788 248.149 23.6968 247.081 25.4285Z" fill="#53BBF5"/>
<path d="M274.682 46.7468L269.847 43.7632C268.909 43.1843 268.605 41.9003 269.184 40.9621L270.876 38.2195C271.455 37.2813 272.738 36.9774 273.676 37.5562L278.512 40.5407C279.45 41.1196 279.753 42.4027 279.174 43.3409L277.528 46.0117C276.904 47.0217 275.62 47.3256 274.682 46.7468Z" fill="#628AEE"/>
<path d="M251.161 23.6617C250.584 23.3055 249.989 23.1383 249.306 23.1147C249.437 24.1925 249.148 25.3092 248.524 26.3193C247.9 27.3294 247.078 28.0181 246.01 28.4554C246.265 29.0117 246.754 29.5116 247.33 29.8678C249.062 30.9362 251.28 30.4116 252.348 28.6798C253.418 26.9482 252.82 24.686 251.161 23.6617Z" fill="#628AEE"/>
<path d="M231.64 36.0998C232.324 36.5213 232.535 37.4175 232.114 38.1009C231.692 38.7844 230.796 38.9959 230.113 38.5744C229.429 38.1529 229.218 37.2567 229.639 36.5732C230.061 35.8898 230.957 35.6783 231.64 36.0998Z" fill="#364261"/>
<path d="M234.94 38.1364C235.623 38.5579 235.834 39.454 235.413 40.1375C234.992 40.821 234.095 41.0325 233.412 40.611C232.729 40.1895 232.517 39.2933 232.938 38.6098C233.36 37.9264 234.256 37.7149 234.94 38.1364Z" fill="#364261"/>
<path d="M238.239 40.172C238.922 40.5935 239.133 41.4897 238.712 42.1732C238.291 42.8566 237.394 43.0681 236.711 42.6466C236.028 42.2251 235.816 41.329 236.237 40.6455C236.659 39.9621 237.555 39.7505 238.239 40.172Z" fill="#364261"/>
<path d="M241.538 42.2077C242.221 42.6292 242.433 43.5254 242.011 44.2088C241.59 44.8923 240.693 45.1038 240.01 44.6823C239.327 44.2608 239.115 43.3646 239.537 42.6812C239.958 41.9977 240.854 41.7862 241.538 42.2077Z" fill="#364261"/>
<path d="M245.661 44.7532C246.345 45.1747 246.556 46.0709 246.135 46.7543C245.713 47.4378 244.817 47.6493 244.134 47.2278C243.45 46.8063 243.239 45.9101 243.66 45.2267C244.082 44.5432 244.978 44.3317 245.661 44.7532Z" fill="#364261"/>
<path d="M248.96 46.7889C249.644 47.2104 249.855 48.1066 249.434 48.79C249.012 49.4735 248.116 49.685 247.433 49.2635C246.749 48.842 246.538 47.9458 246.959 47.2624C247.381 46.5789 248.277 46.3674 248.96 46.7889Z" fill="#364261"/>
<path d="M252.259 48.8246C252.943 49.2461 253.154 50.1423 252.733 50.8257C252.311 51.5092 251.415 51.7207 250.732 51.2992C250.048 50.8777 249.837 49.9815 250.258 49.2981C250.68 48.6146 251.576 48.4031 252.259 48.8246Z" fill="#364261"/>
<path d="M255.558 50.8612C256.242 51.2827 256.453 52.1789 256.032 52.8623C255.61 53.5458 254.714 53.7573 254.031 53.3358C253.347 52.9143 253.136 52.0181 253.557 51.3347C253.979 50.6512 254.875 50.4397 255.558 50.8612Z" fill="#364261"/>
<path d="M259.682 53.4058C260.365 53.8273 260.577 54.7235 260.155 55.4069C259.734 56.0904 258.838 56.3019 258.154 55.8804C257.471 55.4589 257.259 54.5627 257.681 53.8792C258.102 53.1958 258.999 52.9843 259.682 53.4058Z" fill="#364261"/>
<path d="M262.981 55.4414C263.665 55.8629 263.876 56.7591 263.455 57.4426C263.033 58.126 262.137 58.3376 261.454 57.9161C260.77 57.4946 260.559 56.5984 260.98 55.9149C261.402 55.2315 262.298 55.0199 262.981 55.4414Z" fill="#364261"/>
<path d="M266.28 57.478C266.964 57.8995 267.175 58.7957 266.754 59.4792C266.332 60.1626 265.436 60.3741 264.753 59.9526C264.069 59.5311 263.858 58.635 264.279 57.9515C264.701 57.2681 265.597 57.0565 266.28 57.478Z" fill="#364261"/>
<path d="M269.578 59.5137C270.262 59.9352 270.473 60.8314 270.052 61.5148C269.63 62.1983 268.734 62.4098 268.051 61.9883C267.367 61.5668 267.156 60.6706 267.577 59.9872C267.999 59.3037 268.895 59.0922 269.578 59.5137Z" fill="#364261"/>
<path d="M263.59 74.4922L218.088 56.4889C215.087 55.3023 213.544 51.8965 214.764 48.8124L224.358 24.5604C225.545 21.5597 228.951 20.0163 232.035 21.2361L277.62 39.2726C280.62 40.4592 282.164 43.865 280.945 46.9491L271.316 71.2845C270.046 74.252 266.673 75.712 263.59 74.4922Z" fill="#F5F6FA"/>
<path d="M265.83 75.8196C264.977 75.8196 264.106 75.661 263.26 75.3258L217.758 57.3225C216.077 56.6574 214.75 55.3785 214.022 53.7222C213.288 52.0497 213.254 50.1891 213.93 48.4826L223.525 24.2306C224.908 20.7378 228.872 19.0206 232.366 20.4026L277.949 38.4391C279.631 39.1041 280.958 40.3822 281.686 42.0385C282.42 43.7109 282.454 45.5724 281.778 47.2789L272.15 71.6134C271.022 74.2502 268.506 75.8196 265.83 75.8196ZM229.866 21.7174C227.866 21.7174 225.971 22.9211 225.191 24.8902L215.597 49.1423C215.1 50.4006 215.123 51.771 215.663 53.0016C216.2 54.2232 217.178 55.1652 218.418 55.6554L263.921 73.6587C266.516 74.6858 269.4 73.4857 270.494 70.9314L280.111 46.6193C280.609 45.3609 280.585 43.9914 280.045 42.76C279.508 41.5392 278.53 40.5964 277.29 40.1061L231.705 22.0697C231.101 21.8304 230.479 21.7174 229.866 21.7174Z" fill="#364261"/>
<path d="M237.137 32.7003C236.346 34.7007 234.136 35.657 232.136 34.8656C230.136 34.0742 229.178 31.8649 229.969 29.8645C230.76 27.864 232.971 26.9077 234.971 27.6991C236.97 28.4905 237.928 30.6998 237.137 32.7003Z" fill="#53BBF5"/>
<path d="M269.804 49.7697L264.221 47.5613C263.137 47.1328 262.584 45.853 263.012 44.7694L264.265 41.602C264.693 40.5184 265.973 39.9654 267.056 40.3938L272.64 42.6031C273.723 43.0315 274.278 44.3105 273.848 45.3941L272.628 48.4781C272.167 49.6451 270.888 50.1981 269.804 49.7697Z" fill="#628AEE"/>
<path d="M241.055 30.1056C240.389 29.8421 239.739 29.7784 239.024 29.8806C239.361 30.9776 239.266 32.193 238.804 33.3599C238.342 34.5269 237.613 35.3944 236.584 36.0478C236.951 36.5793 237.553 37.0095 238.22 37.273C240.219 38.0644 242.429 37.1081 243.221 35.1076C244.012 33.1072 242.971 30.8638 241.055 30.1056Z" fill="#628AEE"/>
<path d="M223.048 46.665C223.837 46.9769 224.223 47.8704 223.911 48.6592C223.6 49.4479 222.706 49.8342 221.917 49.5223C221.129 49.2104 220.742 48.3168 221.054 47.5281C221.366 46.7394 222.26 46.3531 223.048 46.665Z" fill="#364261"/>
<path d="M226.858 48.1725C227.647 48.4844 228.033 49.378 227.721 50.1667C227.409 50.9554 226.516 51.3417 225.727 51.0298C224.938 50.7179 224.552 49.8243 224.864 49.0356C225.176 48.2469 226.07 47.8606 226.858 48.1725Z" fill="#364261"/>
<path d="M230.668 49.68C231.457 49.9919 231.843 50.8855 231.531 51.6742C231.219 52.4629 230.326 52.8492 229.537 52.5373C228.748 52.2254 228.362 51.3318 228.674 50.5431C228.986 49.7544 229.879 49.3681 230.668 49.68Z" fill="#364261"/>
<path d="M234.478 51.1875C235.267 51.4994 235.653 52.393 235.341 53.1817C235.029 53.9704 234.136 54.3567 233.347 54.0448C232.558 53.7329 232.172 52.8393 232.484 52.0506C232.796 51.2619 233.689 50.8756 234.478 51.1875Z" fill="#364261"/>
<path d="M239.24 53.0715C240.028 53.3834 240.414 54.277 240.103 55.0657C239.791 55.8544 238.897 56.2407 238.109 55.9288C237.32 55.6169 236.934 54.7233 237.245 53.9346C237.557 53.1459 238.451 52.7596 239.24 53.0715Z" fill="#364261"/>
<path d="M243.049 54.579C243.838 54.8909 244.224 55.7845 243.912 56.5732C243.601 57.3619 242.707 57.7482 241.918 57.4363C241.13 57.1244 240.743 56.2308 241.055 55.4421C241.367 54.6534 242.261 54.2671 243.049 54.579Z" fill="#364261"/>
<path d="M246.859 56.0865C247.648 56.3984 248.034 57.292 247.722 58.0807C247.41 58.8694 246.517 59.2557 245.728 58.9438C244.94 58.6319 244.553 57.7383 244.865 56.9496C245.177 56.1609 246.071 55.7746 246.859 56.0865Z" fill="#364261"/>
<path d="M250.669 57.5932C251.458 57.9051 251.844 58.7986 251.532 59.5874C251.22 60.3761 250.327 60.7624 249.538 60.4505C248.749 60.1386 248.363 59.245 248.675 58.4563C248.987 57.6676 249.88 57.2813 250.669 57.5932Z" fill="#364261"/>
<path d="M255.431 59.478C256.22 59.7899 256.606 60.6835 256.294 61.4722C255.982 62.2609 255.088 62.6472 254.3 62.3353C253.511 62.0234 253.125 61.1298 253.437 60.3411C253.749 59.5524 254.642 59.1661 255.431 59.478Z" fill="#364261"/>
<path d="M259.241 60.9846C260.029 61.2965 260.416 62.1901 260.104 62.9788C259.792 63.7675 258.898 64.1538 258.11 63.8419C257.321 63.53 256.935 62.6364 257.247 61.8477C257.558 61.059 258.452 60.6727 259.241 60.9846Z" fill="#364261"/>
<path d="M263.051 62.4921C263.839 62.804 264.225 63.6976 263.914 64.4863C263.602 65.275 262.708 65.6613 261.919 65.3494C261.131 65.0375 260.745 64.1439 261.056 63.3552C261.368 62.5665 262.262 62.1802 263.051 62.4921Z" fill="#364261"/>
<path d="M266.86 63.9997C267.649 64.3116 268.035 65.2051 267.723 65.9938C267.412 66.7826 266.518 67.1689 265.729 66.857C264.941 66.5451 264.554 65.6515 264.866 64.8628C265.178 64.074 266.072 63.6878 266.86 63.9997Z" fill="#364261"/>
<path d="M29.4851 137.888C29.1572 137.882 28.8455 137.698 28.6928 137.383C28.4768 136.937 28.6628 136.402 29.1082 136.186L77.5312 112.704C77.9766 112.486 78.5123 112.673 78.7283 113.12C78.9444 113.565 78.7583 114.102 78.3129 114.318L29.8899 137.798C29.7589 137.862 29.6205 137.89 29.4851 137.888Z" fill="#364261"/>
<path d="M26.3361 145.222C25.9544 145.216 25.5727 145.149 25.2037 145.021C24.2856 144.702 23.5451 144.039 23.1156 143.153C22.686 142.269 22.6249 141.275 22.9435 140.357C23.262 139.44 23.9246 138.699 24.8099 138.269L29.1082 136.185C29.5536 135.966 30.0892 136.155 30.3053 136.6C30.5213 137.046 30.3353 137.581 29.8899 137.797L25.5917 139.882C25.1373 140.102 24.7978 140.479 24.6371 140.945C24.4755 141.41 24.5077 141.917 24.7281 142.37C24.9484 142.826 25.3266 143.165 25.7919 143.327C26.2573 143.488 26.7624 143.455 27.2177 143.236L29.0317 142.355C29.4771 142.137 30.0128 142.324 30.2297 142.77C30.4458 143.215 30.2606 143.752 29.8152 143.968L28.0003 144.849C27.471 145.105 26.9034 145.231 26.3361 145.222Z" fill="#364261"/>
<path d="M82.8001 118.17C82.4722 118.164 82.1605 117.98 82.0078 117.665C81.7917 117.219 81.9778 116.684 82.4232 116.468L84.238 115.587C85.1784 115.131 85.5572 114.038 85.1017 113.097C84.8813 112.643 84.5031 112.303 84.0378 112.142C83.5734 111.982 83.0655 112.014 82.612 112.234L78.3138 114.318C77.8667 114.534 77.3319 114.348 77.1167 113.902C76.9007 113.457 77.0858 112.921 77.5312 112.705L81.8294 110.62C82.7138 110.191 83.7079 110.13 84.6251 110.449C85.5433 110.767 86.2847 111.43 86.7142 112.315C87.6087 114.16 86.8644 116.306 85.0198 117.2L83.2049 118.08C83.0739 118.144 82.9354 118.172 82.8001 118.17Z" fill="#364261"/>
<path d="M80.3302 118.478L98.5537 156.062L50.1307 179.543L31.9072 141.958" fill="#F5F6FA"/>
<path d="M50.1172 180.438C49.7892 180.433 49.4766 180.248 49.3239 179.933L31.1005 142.349C30.9963 142.135 30.9824 141.889 31.0603 141.664C31.1383 141.44 31.3017 141.256 31.5158 141.152L79.9398 117.671C80.3852 117.453 80.9209 117.64 81.1369 118.087L99.3595 155.671C99.5755 156.116 99.3904 156.653 98.945 156.869L50.5211 180.349C50.3901 180.412 50.2525 180.44 50.1172 180.438ZM33.1043 142.373L50.546 178.345L97.3566 155.647L79.9148 119.675L33.1043 142.373Z" fill="#364261"/>
<path d="M79.7097 173.399C79.131 172.205 77.7128 171.713 76.5185 172.292C75.3243 172.871 74.8328 174.289 75.4115 175.483C75.9902 176.677 77.4084 177.169 78.6027 176.59C79.7735 175.964 80.2659 174.545 79.7097 173.399Z" fill="#F5F6FA"/>
<path d="M77.509 177.718C76.3028 177.699 75.1628 177.021 74.6057 175.874C73.8153 174.244 74.4985 172.275 76.1281 171.485C76.9222 171.101 77.8122 171.048 78.6385 171.334C79.4649 171.62 80.1321 172.215 80.5164 173.008C81.2878 174.6 80.6331 176.52 79.0256 177.381C78.5342 177.619 78.0153 177.727 77.509 177.718ZM77.5909 172.946C77.3588 172.942 77.1267 172.993 76.9099 173.098C76.1574 173.463 75.8538 174.339 76.2182 175.092C76.5844 175.845 77.4597 176.149 78.2123 175.784C78.9238 175.402 79.2484 174.5 78.9039 173.79C78.7278 173.427 78.4256 173.157 78.0512 173.027C77.9014 172.975 77.7459 172.948 77.5909 172.946Z" fill="#364261"/>
<path d="M76.5051 173.188C76.1771 173.183 75.8654 172.999 75.7127 172.683L73.5357 168.194C73.3197 167.749 73.5058 167.213 73.9511 166.997C74.3956 166.778 74.9322 166.966 75.1483 167.412L77.3252 171.902C77.5413 172.347 77.3552 172.883 76.9098 173.099C76.7789 173.162 76.6404 173.19 76.5051 173.188Z" fill="#364261"/>
<path d="M48.3422 148.971L44.5218 150.823L52.9268 168.16L56.7472 166.306L48.3422 148.971Z" fill="#53BBF5"/>
<path d="M62.5718 151.921L58.7514 153.774L63.2902 163.134L67.1105 161.281L62.5718 151.921Z" fill="#628AEE"/>
<path d="M69.116 138.897L65.2956 140.75L73.7006 158.087L77.521 156.234L69.116 138.897Z" fill="#53BBF5"/>
<path d="M82.6974 140.511L78.8762 142.363L84.0631 153.061L87.8843 151.209L82.6974 140.511Z" fill="#628AEE"/>
<path d="M57.5918 147.44C57.5363 147.439 57.4799 147.434 57.4236 147.422L43.194 144.472C42.7098 144.371 42.3974 143.896 42.4984 143.412C42.5993 142.928 43.0713 142.616 43.5582 142.716L57.1134 145.527L63.3482 133.119C63.5177 132.782 63.883 132.584 64.2551 132.631L77.8357 134.245C78.3269 134.303 78.6791 134.749 78.6202 135.24C78.5621 135.731 78.1216 136.09 77.6243 136.024L64.6673 134.485L58.4065 146.947C58.25 147.258 57.9306 147.446 57.5918 147.44Z" fill="#364261"/>
<path d="M101.33 35.2511C95.5273 40.6855 92.3328 50.2547 95.6877 56.9742C97.1607 59.9233 98.8269 62.2921 101.146 63.6708C103.682 65.2433 105.904 67.2733 107.74 69.6184C108.731 70.8757 109.286 72.5918 110.686 73.9459C111.942 75.1305 113.802 75.4694 115.35 74.6971L117.863 73.4415C119.555 72.5967 119.967 70.3974 118.663 68.9953C116.852 67.0611 115.161 63.7981 113.472 60.1728" fill="#F5F6FA"/>
<path d="M116.415 65.8909C122.215 65.1687 129.638 61.4614 129.782 61.3889C131.185 60.6891 132.514 59.9641 133.746 59.288C134.834 58.6845 136.188 58.8546 137.081 59.7977C137.347 60.0881 137.661 60.3531 137.927 60.6434C138.82 61.4656 140.052 61.6359 141.116 61.1046L144.355 59.4865C146.095 58.6172 146.483 56.371 145.131 54.9924C144.213 54.0014 140.929 49.4804 139.481 46.2169" fill="#F5F6FA"/>
<path d="M143.863 53.3903C160.446 41.1223 157.514 31.5328 155.897 28.173C155.535 27.4484 154.665 27.1564 153.94 27.519L152.587 28.1953C146.669 22.0297 136.665 22.4362 136.665 22.4362C135.844 20.3087 136.111 17.0955 136.33 15.3554C136.378 14.8477 135.823 14.4603 135.364 14.7502C132.196 16.8749 129.924 19.4605 128.545 22.384C125.718 22.5273 120.909 22.5731 117.356 24.1665" fill="#F5F6FA"/>
<path d="M101.33 35.2511C95.5273 40.6855 92.3328 50.2539 95.6876 56.9733C97.1607 59.9224 98.8268 62.2912 101.146 63.6699C103.682 65.2423 105.904 67.2733 107.74 69.6184C108.731 70.8757 109.285 72.5917 110.686 73.9459C111.942 75.1304 113.802 75.4694 115.35 74.697L117.863 73.4415C119.555 72.5966 119.967 70.3974 118.663 68.9952C117.895 68.1746 117.148 67.1149 116.415 65.89C122.215 65.1677 129.638 61.4614 129.782 61.3889C131.185 60.689 132.514 59.964 133.746 59.288C134.834 58.6845 136.188 58.8536 137.081 59.7968C137.347 60.0872 137.661 60.353 137.927 60.6434C138.82 61.4655 140.052 61.6349 141.116 61.1037L144.355 59.4865C146.095 58.6171 146.483 56.371 145.131 54.9924C144.868 54.7091 144.414 54.1382 143.863 53.3903C160.446 41.1224 157.515 31.5328 155.897 28.173C155.535 27.4484 154.665 27.1573 153.941 27.5199L152.587 28.1962C146.669 22.0306 136.665 22.4362 136.665 22.4362C135.845 20.3088 136.112 17.0955 136.33 15.3555C136.378 14.8477 135.823 14.4613 135.364 14.7511C132.197 16.8759 129.924 19.4605 128.545 22.3841C125.718 22.5274 120.909 22.5731 117.356 24.1665C111.463 25.428 104.216 32.0824 101.33 35.2511Z" fill="#F5F6FA"/>
<path d="M113.706 76.0025C112.399 76.0339 111.08 75.5493 110.071 74.5981C109.127 73.6857 108.538 72.6465 108.018 71.7293C107.694 71.1588 107.389 70.6211 107.036 70.1732C105.222 67.8555 103.082 65.9238 100.674 64.4317C98.4529 63.1116 96.6632 60.9331 94.8859 57.3745C91.1986 49.9889 94.9548 39.9929 100.717 34.5971C103.713 31.3029 111.042 24.6546 117.075 23.3108C120.404 21.8474 124.709 21.6569 127.566 21.5317L127.975 21.5129C129.46 18.6021 131.777 16.0791 134.865 14.0065C135.38 13.6794 135.996 13.6771 136.493 13.9826C137 14.294 137.279 14.853 137.222 15.4416C136.899 18.017 136.933 20.0979 137.315 21.5348C139.673 21.5588 147.475 22.0408 152.763 27.1063L153.54 26.7173C154.105 26.4366 154.744 26.3907 155.339 26.5889C155.935 26.7879 156.418 27.2075 156.7 27.7727C158.953 32.454 160.379 41.9568 145.12 53.5681C145.402 53.9333 145.631 54.212 145.781 54.3752C146.617 55.2336 146.985 56.3957 146.789 57.5641C146.591 58.7487 145.849 59.7419 144.755 60.2882L141.516 61.9063C140.121 62.6015 138.473 62.3659 137.32 61.3026C137.147 61.1185 137.015 60.9935 136.883 60.8675C136.725 60.7154 136.567 60.5623 136.42 60.4035C135.84 59.7908 134.936 59.6539 134.181 60.071C132.924 60.7611 131.582 61.4917 130.183 62.1906C129.893 62.3356 123.517 65.5004 117.902 66.5616C118.343 67.218 118.79 67.8079 119.242 68.3018C119.267 68.329 119.292 68.3561 119.317 68.3833C119.319 68.3842 119.321 68.3859 119.322 68.3877C120.134 69.262 120.479 70.4264 120.269 71.5834C120.059 72.7423 119.328 73.7111 118.263 74.2433L115.75 75.4988C115.105 75.8209 114.407 75.9856 113.706 76.0025ZM135.372 15.833C132.644 17.7634 130.615 20.0966 129.356 22.7662C129.214 23.0655 128.921 23.2626 128.591 23.2795L127.645 23.3229C124.9 23.4436 120.751 23.6259 117.722 24.9843C117.665 25.0099 117.605 25.0302 117.544 25.0433C111.938 26.2441 104.92 32.6402 101.992 35.8547C95.216 42.2055 93.887 51.3613 96.4893 56.573C98.1036 59.8056 99.6817 61.757 101.604 62.8995C104.206 64.5116 106.503 66.5839 108.446 69.0662C108.88 69.6179 109.234 70.2414 109.577 70.8446C110.06 71.6954 110.559 72.5764 111.309 73.3015C112.306 74.2413 113.772 74.4831 114.949 73.8944L117.463 72.6398C118.017 72.3629 118.397 71.8616 118.505 71.2637C118.613 70.6676 118.432 70.0641 118.008 69.6072C118.004 69.6019 117.999 69.5976 117.994 69.5923C117.945 69.5397 117.895 69.4853 117.846 69.4309C117.459 69.0009 117.071 68.5091 116.676 67.9475C115.229 65.8916 113.9 63.2125 112.66 60.551C112.451 60.1024 112.645 59.5687 113.094 59.3598C113.542 59.1527 114.075 59.3452 114.285 59.7938C115.082 61.5058 115.961 63.3145 116.885 64.9194C122.38 64.0638 129.089 60.7332 129.382 60.5872C130.752 59.9024 132.077 59.182 133.315 58.5023C134.792 57.6823 136.57 57.9542 137.731 59.1814C137.861 59.3226 137.993 59.4467 138.124 59.5727C138.283 59.7249 138.441 59.8789 138.587 60.0376C139.145 60.5478 139.981 60.6693 140.716 60.302L143.954 58.6848C144.53 58.3975 144.919 57.8816 145.021 57.2686C145.122 56.6682 144.93 56.0677 144.493 55.6218C144.49 55.6192 144.488 55.6166 144.485 55.614L144.484 55.6122C144.479 55.6078 144.475 55.6026 144.47 55.5982C144.17 55.2737 143.699 54.6781 143.142 53.9214C143.128 53.9029 143.115 53.8835 143.103 53.8649C141.706 51.9638 139.733 48.9945 138.662 46.5808C138.461 46.1284 138.664 45.5991 139.117 45.3981C139.569 45.1981 140.098 45.4005 140.299 45.8529C141.19 47.8603 142.784 50.3322 144.056 52.1252C158.282 41.2928 157.099 32.7352 155.09 28.5618C155.028 28.4369 154.912 28.3357 154.771 28.2889C154.628 28.2403 154.475 28.253 154.341 28.3217L152.987 28.9979C152.635 29.1732 152.211 29.0982 151.94 28.816C146.38 23.0237 136.793 23.3216 136.701 23.3319C136.352 23.3447 135.968 23.1173 135.829 22.7593C135.07 20.79 135.139 18.0073 135.372 15.833Z" fill="#364261"/>
<path d="M119.093 28.9767C118.949 27.9617 118.659 26.8973 118.177 25.9308C115.811 21.1931 110.012 19.2571 105.274 21.6232C100.537 23.9892 98.601 29.7878 100.967 34.5255C101.739 36.0723 102.851 37.3294 104.179 38.176" fill="#F5F6FA"/>
<path d="M104.2 39.0729C104.028 39.077 103.853 39.0319 103.698 38.9326C102.228 37.9961 101.006 36.6108 100.165 34.9267C98.9145 32.4214 98.7168 29.5708 99.6074 26.901C100.499 24.2313 102.369 22.0732 104.874 20.8214C107.38 19.5688 110.231 19.372 112.9 20.2635C115.569 21.155 117.728 23.0261 118.98 25.5314C119.466 26.5067 119.811 27.6541 119.98 28.8513C120.05 29.3418 119.708 29.7956 119.219 29.8648C118.729 29.9375 118.275 29.5925 118.206 29.1029C118.063 28.0941 117.776 27.1355 117.376 26.3311C116.339 24.2546 114.547 22.7028 112.332 21.9635C110.117 21.2234 107.752 21.3879 105.676 22.4258C103.598 23.4628 102.047 25.2546 101.307 27.4698C100.568 29.6849 100.731 32.0478 101.769 34.1252C102.465 35.5196 103.465 36.6592 104.661 37.4212C105.078 37.6873 105.202 38.2402 104.936 38.6581C104.769 38.9194 104.488 39.066 104.2 39.0729Z" fill="#364261"/>
<path d="M107.54 34.3835C106.646 33.9236 105.873 33.2223 105.39 32.2558C104.255 29.9835 105.151 27.1809 107.472 26.0224C109.744 24.8874 112.546 25.7829 113.705 28.1039C114.043 28.7807 114.188 29.5536 114.188 30.2789" fill="#F5F6FA"/>
<path d="M108.504 35.715C108.369 35.7182 108.233 35.6919 108.106 35.6331L107.164 35.1976C107.153 35.1925 107.142 35.1865 107.131 35.1805C106.004 34.6015 105.125 33.7289 104.589 32.657C103.93 31.3397 103.823 29.8424 104.284 28.4417C104.749 27.0301 105.739 25.8856 107.071 25.2198C108.39 24.5614 109.885 24.4537 111.287 24.9158C112.698 25.3812 113.842 26.3712 114.507 27.7027C114.885 28.4601 115.085 29.3509 115.084 30.2797C115.084 30.3174 115.081 30.3542 115.077 30.3911L114.931 31.5502C114.894 31.8425 114.716 32.0969 114.456 32.2331C112.159 33.4288 110.987 34.1419 109.001 35.5506C108.853 35.6555 108.679 35.7107 108.504 35.715ZM107.934 33.5788L108.389 33.7884C110.073 32.6111 111.276 31.8811 113.211 30.8618L113.292 30.2242C113.285 29.6013 113.147 28.9923 112.903 28.5042C112.453 27.6024 111.68 26.9324 110.726 26.6183C109.777 26.3049 108.762 26.3786 107.873 26.8241C106.971 27.2743 106.3 28.048 105.986 29.0023C105.674 29.9512 105.747 30.9642 106.193 31.8554C106.56 32.5898 107.145 33.1692 107.934 33.5788Z" fill="#364261"/>
<path d="M143.727 30.7645C144.648 30.3048 145.022 29.185 144.562 28.2637C144.102 27.3424 142.982 26.9686 142.061 27.4282C141.139 27.8879 140.766 29.0077 141.226 29.929C141.686 30.8503 142.805 31.2241 143.727 30.7645Z" fill="#364261"/>
<path d="M153.706 33.3754C153.696 33.3756 153.686 33.3759 153.675 33.3761C153.18 33.3701 152.783 32.9655 152.788 32.4705C152.81 30.3766 151.766 28.5781 151.755 28.5605C151.503 28.1344 151.645 27.585 152.071 27.3327C152.498 27.0813 153.048 27.2241 153.299 27.6492C153.352 27.7403 154.608 29.9012 154.581 32.4892C154.575 32.9735 154.187 33.3638 153.706 33.3754Z" fill="#364261"/>
<path d="M102.725 42.0445C102.563 42.0484 102.398 42.0084 102.249 41.9206C101.823 41.6691 101.68 41.1202 101.931 40.6937C102.171 40.2845 107.985 30.646 121.98 28.1443C122.463 28.0583 122.933 28.3814 123.02 28.8688C123.107 29.3562 122.783 29.8221 122.295 29.9091C109.104 32.2678 103.53 41.5096 103.476 41.6024C103.313 41.8797 103.024 42.0373 102.725 42.0445Z" fill="#364261"/>
<path d="M106.544 44.8475C106.158 45.0406 105.674 45.0406 105.24 44.7749C104.611 44.3642 104.394 43.5661 104.805 42.9376C105.144 42.4059 108.07 37.7435 114.741 34.4121C117.255 33.1566 120.01 32.2637 122.935 31.7092C123.659 31.5887 124.384 32.0724 124.505 32.7975C124.625 33.5226 124.142 34.2478 123.417 34.3684C120.758 34.8501 118.269 35.6711 115.948 36.8297C109.857 39.8719 107.221 44.1472 107.125 44.3163C106.955 44.5821 106.738 44.7505 106.544 44.8475Z" fill="#628AEE"/>
<path d="M127.575 27.219C127.543 27.2197 127.511 27.2187 127.479 27.2168C126.985 27.1758 126.618 26.7426 126.658 26.2495C126.839 24.0549 127.66 22.0727 127.694 21.9894C127.885 21.5338 128.409 21.3168 128.866 21.5084C129.323 21.6992 129.539 22.2247 129.349 22.6811C129.341 22.6992 128.602 24.493 128.446 26.3965C128.408 26.8574 128.027 27.2081 127.575 27.219Z" fill="#364261"/>
<path d="M91.3932 59.3411C90.964 59.3514 90.5298 59.3027 90.1004 59.1929C87.9745 58.6918 86.6854 56.6456 87.1808 54.5403C87.6816 52.7029 89.3697 51.6967 91.1148 52.1667C92.5087 52.5706 93.3818 54.0944 92.9989 55.4304C92.8624 55.9062 92.3642 56.1799 91.8903 56.0452C91.4146 55.9087 91.1391 55.4124 91.2756 54.9366C91.3757 54.5873 91.0923 54.0266 90.631 53.8934C89.8631 53.6859 89.1513 54.1325 88.918 54.9826C88.6562 56.0979 89.3445 57.1724 90.5283 57.4523C91.3122 57.6522 92.101 57.5373 92.7717 57.1303C93.4432 56.7242 93.9119 56.0799 94.0916 55.3172C94.2047 54.8348 94.6833 54.5346 95.1693 54.6511C95.6508 54.7642 95.9502 55.2465 95.8362 55.7288C95.545 56.9641 94.7856 58.0062 93.6997 58.6634C92.9901 59.092 92.1995 59.3217 91.3932 59.3411Z" fill="#364261"/>
</g>
</g>
<defs>
<clipPath id="clip0_4_115">
<rect width="380" height="432" fill="white"/>
</clipPath>
</defs>
</svg>
